<svg width="67" height="67" viewBox="0 0 67 67" fill="none" xmlns="http://www.w3.org/2000/svg">
<circle cx="33.5" cy="33.5" r="33.5" fill="#00D5E2"/>
<path d="M51.1085 22.595C51.0989 21.8677 50.7877 21.2068 50.2877 20.7341C50.2443 20.6915 50.1947 20.6498 50.1451 20.6123L45.8431 23.3266L33.056 31.4022L20.2628 23.3266L15.9668 20.6123C15.9173 20.6489 15.8677 20.6915 15.8242 20.7341C15.3243 21.2059 15.013 21.8677 15.0035 22.595L15 22.5933V43.4066L15.0035 43.404C15.013 44.1314 15.3243 44.7931 15.8242 45.2649C15.8677 45.3075 15.9173 45.3493 15.9668 45.3867L20.2619 42.6724L33.0551 34.5968L45.8422 42.6724L50.1443 45.3867C50.1938 45.3501 50.2434 45.3075 50.2869 45.2649C50.7877 44.7923 51.0981 44.1314 51.1076 43.404L51.1111 43.4066V22.5925L51.1076 22.5942L51.1085 22.595ZM34.6254 32.9991L33.056 33.9896L31.4866 32.9991L33.056 32.0094L34.6254 32.9991Z" fill="white"/>
<path d="M46.3256 41.7438L35.72 32.3081L34.195 30.9539C33.5507 30.3773 32.5586 30.3773 31.9074 30.9539L30.3885 32.3081L19.7846 41.7438L15.8242 45.2655C15.8677 45.3081 15.9173 45.3507 15.9668 45.3873C16.4259 45.7757 17.0267 46.0005 17.684 46.0005H48.4271C49.0844 46.0005 49.6852 45.7757 50.1443 45.3873C50.1938 45.3507 50.2434 45.3081 50.2868 45.2655L46.3265 41.7438H46.3256Z" fill="white"/>
<path d="M46.3265 24.2567L35.7208 33.6924L34.1958 35.0466C33.5516 35.6232 32.5595 35.6232 31.9083 35.0466L30.3893 33.6924L19.7855 24.2567L15.8242 20.735C15.8677 20.6924 15.9173 20.6498 15.9668 20.6132C16.4259 20.2248 17.0267 20 17.684 20H48.4279C49.0853 20 49.686 20.2248 50.1451 20.6132C50.1947 20.6498 50.2442 20.6924 50.2877 20.735L46.3273 24.2567H46.3265Z" fill="#7CEBF2"/>
</svg>
