<svg width="136" height="35" viewBox="0 0 136 35" fill="none" xmlns="http://www.w3.org/2000/svg">
<path d="M52.7041 19.8148C51.2681 20.0121 49.7646 20.1653 48.2407 20.2639C46.7237 20.3626 45.2472 20.3898 43.8855 20.3932C43.7234 20.3932 43.6423 20.3524 43.6423 20.1312V10.4568H50.8221V8.30957H41.3008V20.6042C41.3008 21.0398 41.392 21.3427 41.5778 21.5298L42.3279 22.2853C42.5002 22.4588 42.8077 22.5439 43.2571 22.5439C43.6287 22.5575 44.0139 22.5677 44.4126 22.5677C44.8113 22.5677 45.2168 22.5609 45.6323 22.5439C46.4568 22.5167 47.3015 22.4724 48.1326 22.4146C48.9638 22.3567 49.795 22.2853 50.5924 22.1968C51.3897 22.1117 52.1567 22.0062 52.8764 21.8905L53.0656 21.8599L52.9305 19.7841L52.7075 19.8148H52.7041Z" fill="#9EA3B7"/>
<path d="M56.2597 7.31567H53.8945V27.2022H56.2597V15.9999H59.2837V13.8969H56.2597V7.31567Z" fill="#9EA3B7"/>
<path d="M63.8841 15.8143C64.4754 16.2294 65.2052 16.5459 66.0465 16.75C66.8777 16.9542 67.8203 17.0597 68.8475 17.0597C69.8746 17.0597 70.8139 16.9542 71.6518 16.7398C72.4965 16.5255 73.223 16.2056 73.8109 15.7904C74.4021 15.3753 74.8684 14.8512 75.1961 14.2251C75.5171 13.6092 75.6793 12.8844 75.6793 12.0779C75.6793 11.2714 75.5171 10.5908 75.1961 9.97148C74.8718 9.35556 74.4123 8.82471 73.8244 8.39935C73.2432 7.97739 72.5202 7.65411 71.6755 7.43633C70.8376 7.22535 69.8881 7.11646 68.8508 7.11646C67.8136 7.11646 66.8608 7.22194 66.0228 7.43633C65.1781 7.65411 64.4517 7.97398 63.8638 8.39935C63.2658 8.82471 62.8063 9.35556 62.4886 9.97489C62.1744 10.5942 62.0156 11.302 62.0156 12.0779C62.0156 12.8537 62.1778 13.6126 62.4988 14.2353C62.8198 14.858 63.2827 15.3889 63.8807 15.8108L63.8841 15.8143ZM68.8475 14.9125C68.1109 14.9125 67.4554 14.8342 66.8979 14.6811C66.3438 14.5314 65.8708 14.3238 65.4924 14.0686C65.1241 13.8168 64.8369 13.5139 64.6477 13.177C64.4585 12.8367 64.3639 12.476 64.3639 12.0813C64.3639 11.2612 64.7321 10.6044 65.4856 10.077C66.2526 9.54272 67.3878 9.26708 68.8508 9.26708C70.3138 9.26708 71.4288 9.53591 72.2026 10.0668C72.9662 10.5874 73.3345 11.2476 73.3345 12.0779C73.3345 12.4658 73.2399 12.8367 73.0506 13.1736C72.8581 13.5139 72.5742 13.8134 72.206 14.0652C71.8242 14.3238 71.3511 14.528 70.7903 14.6777C70.2294 14.8308 69.5773 14.9091 68.8542 14.9091L68.8475 14.9125Z" fill="#9EA3B7"/>
<path d="M59.6445 20.6884H67.7198V27.205H70.0646V20.6884H78.1466V18.582H59.6445V20.6884Z" fill="#9EA3B7"/>
<path d="M89.3098 19.3095C90.1342 19.2278 90.891 19.044 91.56 18.7616C92.283 18.4553 92.898 18.0538 93.3947 17.5604C93.8913 17.067 94.2765 16.4749 94.5468 15.7943C94.8137 15.1171 94.9489 14.3685 94.9489 13.5688C94.9489 12.6806 94.7833 11.8673 94.459 11.1595C94.1312 10.4483 93.6616 9.8324 93.0635 9.32877C92.4655 8.82174 91.7425 8.43041 90.9147 8.16498C90.0902 7.90296 89.1577 7.76685 88.1407 7.76685C87.1237 7.76685 86.1878 7.89956 85.3532 8.16498C84.5187 8.43041 83.7956 8.81494 83.2043 9.31516C82.6097 9.81879 82.1468 10.4347 81.819 11.1459C81.4947 11.8639 81.3291 12.6738 81.3291 13.5654C81.3291 14.348 81.4575 15.0899 81.7177 15.7568C81.9745 16.4238 82.3563 17.0193 82.8597 17.5229C83.353 18.0198 83.9679 18.4315 84.6944 18.7446C85.36 19.0338 86.1236 19.221 86.9683 19.3061V22.5933H78.9336V24.7405H97.4357V22.5933H89.3131V19.3061L89.3098 19.3095ZM88.1373 9.91748C88.8705 9.91748 89.5192 10.0128 90.0733 10.1965C90.6207 10.3803 91.0904 10.6389 91.4722 10.9656C91.8404 11.2854 92.1276 11.67 92.3135 12.1157C92.5027 12.5615 92.5973 13.0549 92.5973 13.5824C92.5973 14.1098 92.5027 14.6067 92.3135 15.049C92.1243 15.4914 91.8404 15.8793 91.4722 16.1992C91.0904 16.5259 90.6207 16.7845 90.0733 16.9683C89.5159 17.152 88.8671 17.2473 88.1373 17.2473C87.4075 17.2473 86.7486 17.152 86.1878 16.9683C85.6303 16.7845 85.1606 16.5259 84.7924 16.2026C84.4274 15.8828 84.147 15.4948 83.9578 15.0524C83.7686 14.6067 83.674 14.1132 83.674 13.5858C83.674 13.0583 83.7686 12.5649 83.9578 12.1191C84.147 11.6768 84.4274 11.2888 84.7924 10.969C85.1606 10.6457 85.6337 10.3871 86.1878 10.2033C86.7486 10.0196 87.4075 9.92428 88.1373 9.92428V9.91748Z" fill="#9EA3B7"/>
<path d="M112.384 19.7501C111.712 19.859 111.097 19.9407 110.566 19.9917C110.113 20.0359 109.613 20.0734 109.049 20.104V10.4568H110.935V8.30957H98.9467V10.4568H100.917V20.1789H98.7305V22.3261H105.282C105.87 22.3261 106.498 22.3125 107.164 22.2921C107.829 22.2716 108.495 22.2376 109.154 22.1968C109.813 22.1559 110.448 22.0947 111.039 22.0232C111.651 21.9484 112.164 21.8701 112.607 21.785L112.796 21.7476L112.607 19.7127L112.387 19.7501H112.384ZM106.701 10.4568V20.1789H103.261V10.4568H106.701Z" fill="#9EA3B7"/>
<path d="M115.318 7.31567H112.973V27.2022H115.318V7.31567Z" fill="#9EA3B7"/>
<path d="M119.516 19.6198C121.257 19.1161 122.763 18.4355 124 17.5984C125.142 16.826 126.068 15.8698 126.754 14.7502C127.453 15.8017 128.416 16.7375 129.619 17.5372C130.92 18.3981 132.406 19.0923 134.035 19.6027L134.221 19.6606L135.038 17.5338L134.819 17.4725C133.937 17.2173 133.062 16.877 132.227 16.4585C131.403 16.0467 130.656 15.5635 130.011 15.019C129.372 14.4814 128.855 13.8791 128.47 13.2359C128.088 12.603 127.899 11.919 127.899 11.1976V8.57056H125.51V11.1738C125.51 11.902 125.348 12.5928 125.031 13.2291C124.706 13.8689 124.247 14.461 123.662 14.9884C123.074 15.5159 122.351 16.0059 121.513 16.438C120.669 16.8668 119.729 17.2377 118.719 17.5338L118.496 17.5984L119.341 19.6708L119.52 19.6164L119.516 19.6198Z" fill="#9EA3B7"/>
<path d="M135.998 22.5962H117.496V24.7434H135.998V22.5962Z" fill="#9EA3B7"/>
<path d="M11.9882 5.00451C11.9882 5.00451 11.9814 4.95711 11.9848 4.89279C12.0187 4.5644 12.4963 4.5407 12.4963 4.5407H15.0365C15.5818 4.5407 15.0975 4.03627 15.0975 4.03627C15.0975 4.03627 14.7927 3.77897 14.4336 3.47767C14.3523 3.38626 14.2575 3.28808 14.122 3.17298C13.4006 2.57375 13.0382 2.32323 13.0382 2.32323C13.0382 2.32323 11.9747 1.52764 10.8197 1.9339C9.66473 2.34015 4.42504 4.28341 4.42504 4.28341C4.42504 4.28341 3.22266 4.67951 3.22266 6.00999V18.912H11.9882V5.00451Z" fill="#9EA3B7"/>
<path d="M29.5337 12.6464C29.1273 11.4919 27.1831 6.2546 27.1831 6.2546C27.1831 6.2546 26.7869 5.05615 25.4558 5.05615H12.5547V13.8177H26.4651C26.4651 13.8177 26.5362 13.811 26.6344 13.8177C26.919 13.8888 26.9494 14.3154 26.9494 14.3154V16.8545C26.9494 17.3995 27.4541 16.9154 27.4541 16.9154C27.4541 16.9154 27.7183 16.604 28.0231 16.2383C28.1078 16.1605 28.1959 16.0691 28.2975 15.9506C28.8936 15.2295 29.1476 14.8638 29.1476 14.8638C29.1476 14.8638 29.9402 13.8008 29.5337 12.6464Z" fill="#9EA3B7"/>
<path d="M17.6558 28.2893C17.6558 28.2893 17.6626 28.374 17.6558 28.4823C17.5813 28.7633 17.1613 28.7938 17.1613 28.7938H14.621C14.0791 28.7938 14.5601 29.2948 14.5601 29.2948C14.5601 29.2948 14.9665 29.6401 15.4034 30.0024C15.4441 30.0396 15.4779 30.0769 15.5287 30.1175C16.2502 30.7167 16.6126 30.9672 16.6126 30.9672C16.6126 30.9672 17.6761 31.7628 18.8311 31.3532C19.986 30.9469 25.2223 29.0071 25.2223 29.0071C25.2223 29.0071 26.4247 28.6076 26.4247 27.2771V14.3853H17.6592V28.2893H17.6558Z" fill="#9EA3B7"/>
<path d="M17.0997 19.4685H3.18589C3.18589 19.4685 3.10122 19.4787 2.98606 19.4685C2.71171 19.3907 2.68123 18.9742 2.68123 18.9742V16.4351C2.68123 15.8901 2.17657 16.3742 2.17657 16.3742C2.17657 16.3742 1.83787 16.7737 1.47885 17.2036C1.4382 17.2477 1.39756 17.2849 1.35353 17.3391C0.757415 18.0602 0.503389 18.4224 0.503389 18.4224C0.503389 18.4224 -0.292556 19.4854 0.117271 20.6399C0.523711 21.7943 2.46785 27.0283 2.46785 27.0283C2.46785 27.0283 2.86413 28.2301 4.19522 28.2301H17.0997V19.4685Z" fill="#9EA3B7"/>
</svg>
