<svg width="185" height="68" viewBox="0 0 185 68" fill="none" xmlns="http://www.w3.org/2000/svg">
<path d="M12.3003 28L15.6119 18.2485L11 16.6655L21.6997 6L18.3881 15.7515L23 17.3317L12.3003 28Z" fill="#FFE55F" stroke="#FFE55F" stroke-width="2" stroke-linejoin="round"/>
<path d="M61 24.9231L61 13L58.8889 13L58.8889 23.8462L42.1111 23.8462L42.1111 13L40 13L40 24.9231C40 25.5154 40.475 26 41.0556 26L59.9444 26C60.525 26 61 25.5154 61 24.9231Z" fill="#00B3CE"/>
<path d="M46.6532 15.0822L45 16.5493L49.6734 20.6967C50.129 21.1011 50.871 21.1011 51.3266 20.6967L56 16.5493L54.3468 15.0822L51.6654 17.4618L51.6654 7L49.3287 7L49.3287 17.4566L46.6474 15.077L46.6532 15.0822Z" fill="#00B3CE"/>
<path d="M80.2336 16.4705L82.1816 10.7343L79.4688 9.8031L85.7627 3.5293L83.8147 9.26549L86.5276 10.195L80.2336 16.4705Z" fill="#FFE55F" stroke="#FFE55F" stroke-width="2" stroke-linejoin="round"/>
<path d="M105 16L122 16" stroke="#00B3CE" stroke-width="2" stroke-linecap="round"/>
<path d="M117.343 21.8287L123 16.1719L117.343 10.515" stroke="#00B3CE" stroke-width="2" stroke-linecap="round"/>
<path d="M154.213 27.3751H140.539C139.638 27.3751 138.914 26.678 138.914 25.8104V16.1252L147.281 13.8301L155.837 16.1252V25.8104C155.837 26.6706 155.113 27.3751 154.213 27.3751Z" fill="#FFDF65"/>
<path d="M155.837 9.26041C155.837 6.72216 152.725 5.4305 150.863 7.18776L147.376 10.4845L143.888 7.18776C142.026 5.42299 138.914 6.72216 138.914 9.26041C138.914 10.1541 139.65 10.875 140.562 10.875L147.376 12.5021L154.189 10.875C155.101 10.8675 155.837 10.1465 155.837 9.26041Z" fill="#F05331"/>
<path d="M156.345 10.875H138.405C137.836 10.875 137.375 11.3256 137.375 11.8814V15.1185C137.375 15.6743 137.836 16.125 138.405 16.125H156.345C156.914 16.125 157.375 15.6743 157.375 15.1185V11.8814C157.375 11.3256 156.914 10.875 156.345 10.875Z" fill="#FFC736"/>
<path d="M147.382 7.125C146.104 7.125 145.07 8.15184 145.07 9.42029V27.3749H149.686V9.42029C149.693 8.15184 148.659 7.125 147.382 7.125Z" fill="#EE7256"/>
<path d="M178.655 16.1029H170.612C170.082 16.1029 169.656 15.6929 169.656 15.1825V9.4853L174.578 8.13525L179.611 9.4853V15.1825C179.611 15.6885 179.185 16.1029 178.655 16.1029Z" fill="#FFDF65"/>
<path d="M179.611 5.4473C179.611 3.95421 177.781 3.19441 176.685 4.22809L174.634 6.16734L172.582 4.22809C171.487 3.19 169.656 3.95421 169.656 5.4473C169.656 5.97297 170.089 6.39705 170.626 6.39705L174.634 7.3542L178.642 6.39705C179.178 6.39263 179.611 5.96856 179.611 5.4473Z" fill="#F05331"/>
<path d="M179.909 6.39697H169.356C169.021 6.39697 168.75 6.66206 168.75 6.98899V8.89318C168.75 9.22011 169.021 9.4852 169.356 9.4852H179.909C180.244 9.4852 180.515 9.22011 180.515 8.89318V6.98899C180.515 6.66206 180.244 6.39697 179.909 6.39697Z" fill="#FFC736"/>
<path d="M174.637 4.19092C173.886 4.19092 173.277 4.79494 173.277 5.54109V16.1026H175.992V5.54109C175.997 4.79494 175.388 4.19092 174.637 4.19092Z" fill="#EE7256"/>
<rect x="5" y="47.3501" width="22.2327" height="9.73161" rx="4.8658" transform="rotate(-27.7453 5 47.3501)" fill="#FB5353"/>
<rect x="5.63672" y="57.0547" width="22.2327" height="9.73161" rx="4.8658" transform="rotate(-27.7453 5.63672 57.0547)" fill="#FB5353"/>
<path d="M20.75 50.7716C21.0833 50.964 21.0833 51.4452 20.75 51.6376L15.5 54.6687C15.1667 54.8611 14.75 54.6206 14.75 54.2357L14.75 48.1735C14.75 47.7886 15.1667 47.548 15.5 47.7405L20.75 50.7716Z" fill="white"/>
<rect x="38" y="42.0547" width="10.8575" height="4.7525" rx="2.37625" transform="rotate(-27.7453 38 42.0547)" fill="#FB5353"/>
<rect x="38.3125" y="46.7939" width="10.8575" height="4.7525" rx="2.37625" transform="rotate(-27.7453 38.3125 46.7939)" fill="#FB5353"/>
<path d="M45.3086 43.5039C45.6419 43.6963 45.6419 44.1774 45.3086 44.3699L43.5122 45.407C43.1789 45.5995 42.7622 45.3589 42.7622 44.974L42.7622 42.8997C42.7622 42.5148 43.1789 42.2742 43.5122 42.4667L45.3086 43.5039Z" fill="white"/>
</svg>
