<svg width="220" height="90" viewBox="0 0 220 90" fill="none" xmlns="http://www.w3.org/2000/svg">
<circle cx="110" cy="67" r="15.5" fill="white" stroke="#D6E1F2" stroke-width="3"/>
<path d="M110.125 72.1562C112.766 72.1562 114.648 70.7578 114.641 68.7969C114.648 67.3906 113.734 66.3984 112 66.1875V66.1094C113.305 65.9141 114.227 65.0312 114.219 63.7656C114.227 61.9219 112.57 60.5312 110.156 60.5312C107.719 60.5312 105.938 61.9297 105.906 63.9375H108.469C108.484 63.1484 109.211 62.6172 110.141 62.6094C111.047 62.6172 111.656 63.1562 111.656 63.9219C111.656 64.7344 110.938 65.2891 109.906 65.2812H108.812V67.1875H109.906C111.094 67.1953 111.859 67.7734 111.844 68.5938C111.859 69.4141 111.141 69.9766 110.141 69.9844C109.133 69.9766 108.398 69.4609 108.375 68.7031H105.688C105.711 70.7344 107.547 72.1562 110.125 72.1562Z" fill="#D6E1F2"/>
<circle cx="154" cy="67" r="15.5" fill="white" stroke="#D6E1F2" stroke-width="3"/>
<path d="M149.172 70.0938H154.672V72H157.219V70.0938H158.594V68H157.219V60.6875H153.859L149.172 68.0156V70.0938ZM151.828 68V67.9062L154.625 63.5156H154.719V68H151.828Z" fill="#D6E1F2"/>
<circle cx="66" cy="67" r="15.5" fill="white" stroke="#D6E1F2" stroke-width="3"/>
<path d="M61.8281 72H70.1875V69.8438H65.5312V69.7656L66.9531 68.4531C69.3984 66.3203 70.0391 65.2344 70.0469 63.9375C70.0391 61.9141 68.375 60.5312 65.8281 60.5312C63.3359 60.5312 61.6641 61.9688 61.6719 64.25H64.2031C64.1953 63.2266 64.8438 62.6172 65.8125 62.6094C66.7656 62.6172 67.4609 63.1953 67.4688 64.1406C67.4609 65 66.9141 65.5781 65.9531 66.4531L61.8281 70.0781V72Z" fill="#D6E1F2"/>
<circle cx="22" cy="67" r="15.5" fill="white" stroke="#D6E1F2" stroke-width="3"/>
<path d="M24 60.6875H21.5156L18.7188 62.4375V64.75L21.2656 63.1875H21.3281V72H24V60.6875Z" fill="#D6E1F2"/>
<circle cx="22" cy="23" r="17" fill="#00CBD8"/>
<path d="M24 16.6875H21.5156L18.7188 18.4375V20.75L21.2656 19.1875H21.3281V28H24V16.6875Z" fill="white"/>
<circle cx="66" cy="23" r="17" fill="#00CBD8"/>
<path d="M61.8281 28H70.1875V25.8438H65.5312V25.7656L66.9531 24.4531C69.3984 22.3203 70.0391 21.2344 70.0469 19.9375C70.0391 17.9141 68.375 16.5312 65.8281 16.5312C63.3359 16.5312 61.6641 17.9688 61.6719 20.25H64.2031C64.1953 19.2266 64.8438 18.6172 65.8125 18.6094C66.7656 18.6172 67.4609 19.1953 67.4688 20.1406C67.4609 21 66.9141 21.5781 65.9531 22.4531L61.8281 26.0781V28Z" fill="white"/>
<circle cx="110" cy="23" r="17" fill="#00CBD8"/>
<path d="M110.125 28.1562C112.766 28.1562 114.648 26.7578 114.641 24.7969C114.648 23.3906 113.734 22.3984 112 22.1875V22.1094C113.305 21.9141 114.227 21.0312 114.219 19.7656C114.227 17.9219 112.57 16.5312 110.156 16.5312C107.719 16.5312 105.938 17.9297 105.906 19.9375H108.469C108.484 19.1484 109.211 18.6172 110.141 18.6094C111.047 18.6172 111.656 19.1562 111.656 19.9219C111.656 20.7344 110.938 21.2891 109.906 21.2812H108.812V23.1875H109.906C111.094 23.1953 111.859 23.7734 111.844 24.5938C111.859 25.4141 111.141 25.9766 110.141 25.9844C109.133 25.9766 108.398 25.4609 108.375 24.7031H105.688C105.711 26.7344 107.547 28.1562 110.125 28.1562Z" fill="white"/>
<circle cx="154" cy="23" r="17" fill="#00CBD8"/>
<path d="M149.172 26.0938H154.672V28H157.219V26.0938H158.594V24H157.219V16.6875H153.859L149.172 24.0156V26.0938ZM151.828 24V23.9062L154.625 19.5156H154.719V24H151.828Z" fill="white"/>
<circle cx="198" cy="67" r="15.5" fill="white" stroke="#D6E1F2" stroke-width="3"/>
<path d="M198.156 72.1562C200.789 72.1562 202.547 70.5 202.547 68.1719C202.547 66.0156 201.023 64.4766 198.969 64.4844C197.914 64.4766 197.023 64.9297 196.641 65.5469H196.562L196.828 62.8438H201.875V60.6875H194.641L194.078 67.3125H196.469C196.773 66.7109 197.32 66.3906 198.125 66.3906C199.211 66.3906 199.977 67.1484 199.969 68.25C199.977 69.3516 199.219 70.1016 198.156 70.0938C197.234 70.1016 196.492 69.5391 196.453 68.7031H193.859C193.898 70.7188 195.68 72.1562 198.156 72.1562Z" fill="#D6E1F2"/>
<circle cx="198" cy="23" r="17" fill="#00CBD8"/>
<path d="M198.156 28.1562C200.789 28.1562 202.547 26.5 202.547 24.1719C202.547 22.0156 201.023 20.4766 198.969 20.4844C197.914 20.4766 197.023 20.9297 196.641 21.5469H196.562L196.828 18.8438H201.875V16.6875H194.641L194.078 23.3125H196.469C196.773 22.7109 197.32 22.3906 198.125 22.3906C199.211 22.3906 199.977 23.1484 199.969 24.25C199.977 25.3516 199.219 26.1016 198.156 26.0938C197.234 26.1016 196.492 25.5391 196.453 24.7031H193.859C193.898 26.7188 195.68 28.1562 198.156 28.1562Z" fill="white"/>
</svg>
