<svg width="34" height="34" viewBox="0 0 34 34" fill="none" xmlns="http://www.w3.org/2000/svg">
<path d="M17.9612 18.7275H16.0388V25.4682H17.9612V18.7275Z" fill="#D2D2D2"/>
<path d="M6.25732 27.5618C6.25732 27.0309 6.68767 26.6006 7.21853 26.6006H26.7818C27.3126 26.6006 27.743 27.0309 27.743 27.5618C27.743 28.0927 27.3126 28.523 26.7818 28.523H7.21853C6.68767 28.523 6.25732 28.0926 6.25732 27.5618Z" fill="#D2D2D2"/>
<path d="M17 30.0618C18.3807 30.0618 19.5 28.9424 19.5 27.5616C19.5 26.1809 18.3807 25.0615 17 25.0615C15.6193 25.0615 14.5 26.1809 14.5 27.5616C14.5 28.9424 15.6193 30.0618 17 30.0618Z" fill="#FEBB50"/>
<path d="M17 29.2974C17.9583 29.2974 18.7351 28.5206 18.7351 27.5623C18.7351 26.604 17.9583 25.8271 17 25.8271C16.0417 25.8271 15.2649 26.604 15.2649 27.5623C15.2649 28.5206 16.0417 29.2974 17 29.2974Z" fill="#FEBB50"/>
<path d="M24.9098 9.96875H9.09009V20.2073H24.9098V9.96875Z" fill="white"/>
<path d="M24.9903 15H9.00976C7.433 15 6.15479 16.2782 6.15479 17.855V20.0423C6.15479 21.619 7.433 22.8972 9.00976 22.8972H24.9903C26.567 22.8972 27.8452 21.619 27.8452 20.0423V17.855C27.8452 16.2782 26.567 15 24.9903 15Z" fill="#00B3CE"/>
<path d="M24.9903 6H9.00976C7.433 6 6.15479 7.27822 6.15479 8.85497V11.0423C6.15479 12.619 7.433 13.8972 9.00976 13.8972H24.9903C26.567 13.8972 27.8452 12.619 27.8452 11.0423V8.85497C27.8452 7.27822 26.567 6 24.9903 6Z" fill="#00B3CE"/>
<path d="M10.3611 11.0396C11.2004 11.0396 11.8809 10.3591 11.8809 9.51978C11.8809 8.68043 11.2004 8 10.3611 8C9.52174 8 8.84131 8.68043 8.84131 9.51978C8.84131 10.3591 9.52174 11.0396 10.3611 11.0396Z" fill="#E7EAEB"/>
<path d="M14.6804 11.0396C15.5198 11.0396 16.2002 10.3591 16.2002 9.51978C16.2002 8.68043 15.5198 8 14.6804 8C13.8411 8 13.1606 8.68043 13.1606 9.51978C13.1606 10.3591 13.8411 11.0396 14.6804 11.0396Z" fill="#E7EAEB"/>
<path d="M10.3611 20.0396C11.2004 20.0396 11.8809 19.3591 11.8809 18.5198C11.8809 17.6804 11.2004 17 10.3611 17C9.52174 17 8.84131 17.6804 8.84131 18.5198C8.84131 19.3591 9.52174 20.0396 10.3611 20.0396Z" fill="#E7EAEB"/>
<path d="M14.6804 20.0396C15.5198 20.0396 16.2002 19.3591 16.2002 18.5198C16.2002 17.6804 15.5198 17 14.6804 17C13.8411 17 13.1606 17.6804 13.1606 18.5198C13.1606 19.3591 13.8411 20.0396 14.6804 20.0396Z" fill="#E7EAEB"/>
</svg>
